<?xml version="1.0" encoding="UTF-8" ?>
<!DOCTYPE svg PUBLIC "-//W3C//DTD SVG 1.1//EN" "http://www.w3.org/Graphics/SVG/1.1/DTD/svg11.dtd">
<svg width="569pt" height="181pt" viewBox="0 0 569 181" version="1.1" xmlns="http://www.w3.org/2000/svg">
<g id="#1b000052">
<path fill="#1b0000" opacity="0.32" d=" M 239.71 4.79 C 243.93 -1.05 254.62 -0.05 257.19 6.87 C 259.50 12.86 261.69 18.92 263.46 25.10 C 263.90 21.09 265.66 17.40 268.58 14.60 C 272.73 10.48 275.81 4.22 282.12 3.21 C 286.94 2.36 291.05 5.71 293.42 9.57 C 295.98 9.26 298.62 8.96 301.16 9.69 C 309.90 11.98 318.63 14.32 327.39 16.53 C 331.06 17.30 334.48 19.84 335.49 23.57 C 336.94 27.94 334.34 32.13 332.89 36.12 C 345.18 27.74 356.97 18.65 369.17 10.14 C 371.76 8.37 374.96 7.54 378.08 8.06 C 382.43 8.55 387.74 9.72 389.48 14.34 C 391.61 18.94 389.19 23.77 387.23 27.95 C 400.48 28.22 413.74 28.50 427.00 28.74 C 430.54 28.75 434.42 29.36 436.94 32.10 C 440.81 36.62 443.20 42.18 446.45 47.14 C 447.38 45.22 448.09 43.13 449.54 41.52 C 452.56 38.66 457.37 37.95 461.08 39.89 C 464.75 41.57 466.22 45.62 467.68 49.09 C 469.48 42.87 471.29 36.63 473.60 30.59 C 475.38 25.92 481.14 23.81 485.73 25.35 C 489.38 26.16 491.71 29.29 494.03 31.96 C 498.45 37.19 503.08 42.25 507.48 47.50 C 509.44 49.73 510.03 52.72 511.43 55.27 C 526.17 58.88 541.12 61.73 555.91 65.19 C 559.63 65.88 562.46 69.00 563.41 72.58 C 565.51 80.57 566.50 88.84 569.00 96.73 L 569.00 98.37 C 567.77 102.12 565.89 106.43 561.69 107.52 C 556.60 108.77 551.29 108.23 546.12 108.86 C 534.32 129.56 522.92 150.49 511.09 171.17 C 507.71 176.94 498.92 177.32 494.63 172.37 C 487.51 164.54 480.90 156.24 473.79 148.38 C 470.23 150.63 465.94 152.84 461.63 151.45 C 458.72 150.67 456.39 148.30 455.58 145.41 C 454.00 140.56 454.67 135.38 454.26 130.37 C 446.86 133.79 439.61 137.54 432.28 141.11 C 428.88 142.71 424.69 144.05 421.23 141.85 C 416.66 138.90 411.10 139.38 405.94 138.80 C 399.63 138.23 393.33 137.66 387.02 137.11 C 379.88 136.65 373.32 133.59 366.63 131.34 C 363.58 130.38 361.35 128.02 359.17 125.81 C 348.73 127.01 338.32 128.51 327.88 129.63 C 323.69 130.20 320.10 127.69 317.19 125.01 C 312.88 128.42 308.76 132.10 304.23 135.22 C 299.68 138.48 292.30 137.72 289.30 132.73 C 285.19 125.97 282.03 118.65 277.78 111.98 C 269.58 112.55 261.73 117.97 253.31 115.42 C 251.64 119.70 251.35 124.40 249.46 128.58 C 246.55 133.29 239.67 134.98 235.00 131.86 C 230.32 128.85 226.13 125.11 221.41 122.13 C 216.83 126.64 212.10 130.99 207.47 135.44 C 204.64 138.16 200.66 140.25 196.65 139.41 C 193.41 138.89 190.95 136.56 188.71 134.35 C 185.17 130.79 181.72 127.13 177.97 123.78 C 176.22 125.75 174.37 127.70 171.99 128.91 C 162.04 134.25 152.12 139.66 142.19 145.06 C 138.36 147.10 134.67 149.65 130.34 150.49 C 126.71 151.33 123.23 148.08 119.68 149.72 C 107.42 154.38 95.18 159.10 82.90 163.73 C 70.69 167.92 60.61 176.61 48.50 181.00 L 45.75 181.00 C 40.29 179.01 34.95 176.67 29.69 174.18 C 24.87 172.05 22.09 166.06 24.02 161.07 C 25.15 157.24 29.02 155.41 31.98 153.18 C 27.79 149.02 22.43 145.49 20.18 139.83 C 18.40 135.47 20.74 130.91 23.78 127.80 C 18.75 130.38 13.71 135.37 7.60 133.50 C 3.34 132.44 1.28 128.16 0.00 124.36 L 0.00 122.82 C 9.53 99.28 19.81 76.05 29.64 52.63 C 31.16 48.11 35.72 44.85 40.54 45.46 C 50.38 47.30 58.80 54.12 69.02 54.32 C 79.25 54.95 89.49 57.12 99.74 55.50 C 98.41 49.73 94.55 43.82 96.84 37.82 C 97.89 34.62 101.01 32.79 104.14 32.10 C 134.06 24.37 163.96 16.51 193.88 8.76 C 198.95 7.25 205.05 10.35 206.41 15.55 C 208.01 21.66 208.60 27.99 210.18 34.11 C 211.19 31.43 212.15 28.34 214.87 26.90 C 219.20 24.65 224.26 24.51 228.73 22.63 C 233.05 17.14 235.64 10.47 239.71 4.79 M 236.18 30.20 C 235.67 31.44 234.17 31.43 233.11 31.81 C 228.69 32.86 224.34 34.15 219.92 35.19 C 221.22 38.16 222.51 41.13 223.78 44.11 C 224.92 47.99 229.56 48.61 232.47 50.76 C 233.33 55.39 233.99 60.05 234.80 64.69 C 228.40 65.38 221.96 65.57 215.58 66.38 C 217.01 71.32 218.30 76.31 219.81 81.23 C 215.69 78.01 211.44 74.95 207.30 71.76 C 200.91 73.09 194.55 74.54 188.20 75.98 C 186.01 73.10 183.91 70.15 181.82 67.20 C 189.27 63.83 196.64 60.31 204.10 56.97 C 201.88 43.98 199.39 31.03 197.04 18.05 C 166.60 25.93 136.18 33.88 105.75 41.82 C 110.61 57.13 115.29 72.49 120.14 87.80 C 120.57 89.16 120.91 90.55 121.15 91.96 C 123.12 105.39 125.06 118.82 127.06 132.25 C 123.75 129.32 120.33 126.52 116.97 123.64 C 105.93 127.78 94.96 132.10 83.95 136.31 C 84.13 132.67 84.33 129.03 84.26 125.39 C 91.58 121.18 98.91 116.97 106.21 112.70 C 106.36 108.35 106.62 104.00 106.48 99.65 C 95.80 102.98 85.18 106.53 74.49 109.85 C 74.46 107.22 74.51 104.59 74.76 101.98 C 79.31 99.05 83.95 96.27 88.43 93.24 C 89.29 91.79 89.63 90.10 90.17 88.52 C 94.13 88.71 98.08 88.96 102.04 89.11 C 104.42 80.99 106.84 72.87 109.13 64.72 C 102.74 65.05 96.40 65.98 90.01 66.21 C 81.29 65.49 72.58 64.57 63.85 63.84 C 62.26 63.70 60.65 63.55 59.16 62.92 C 52.57 60.28 45.98 57.62 39.37 55.01 C 29.59 78.18 19.71 101.31 9.85 124.45 C 14.47 121.85 18.92 118.94 23.54 116.33 C 26.75 116.56 29.70 118.47 32.78 119.43 C 39.28 117.33 45.71 115.02 52.19 112.86 C 53.86 115.27 55.51 117.70 57.18 120.11 C 47.84 125.58 38.40 130.88 29.10 136.43 C 31.75 139.16 34.46 141.83 37.15 144.52 C 44.32 141.61 51.55 138.85 58.73 135.99 C 61.12 137.89 63.40 139.92 65.69 141.94 C 54.69 149.48 43.78 157.14 32.80 164.70 C 37.51 166.80 42.20 169.01 46.99 170.95 C 57.83 166.27 67.41 158.58 78.72 154.75 C 95.02 148.50 111.37 142.38 127.63 136.06 C 127.85 137.76 128.07 139.46 128.30 141.16 C 142.02 133.92 155.64 126.49 169.21 118.98 C 159.97 117.84 150.71 116.93 141.45 115.91 C 144.54 111.37 147.54 106.77 150.46 102.12 C 156.01 101.02 161.62 100.17 167.19 99.14 C 177.82 109.28 188.20 119.69 198.65 130.03 C 205.95 123.03 213.41 116.21 220.53 109.03 C 227.33 114.00 234.06 119.05 240.91 123.94 C 244.11 110.92 247.33 97.90 250.45 84.86 C 250.85 83.58 250.90 82.03 252.07 81.15 C 257.45 76.23 262.65 71.08 268.17 66.33 C 270.85 66.32 273.52 66.66 276.19 66.81 C 277.89 70.80 279.74 74.72 281.30 78.76 C 270.60 87.39 259.85 95.95 249.30 104.77 C 253.56 105.12 257.92 107.12 262.17 105.64 C 269.04 103.71 275.97 101.96 282.85 100.03 C 287.81 109.29 292.85 118.51 297.80 127.78 C 306.81 120.69 315.76 113.50 324.75 106.38 C 317.16 105.62 309.52 105.37 301.92 104.71 C 302.62 99.72 303.48 94.75 304.23 89.77 C 312.26 87.98 320.36 86.46 328.41 84.74 C 325.05 77.34 321.51 70.02 318.10 62.65 C 311.56 67.37 305.02 72.08 298.49 76.80 C 298.67 71.75 298.12 66.71 298.26 61.66 C 305.52 59.99 312.74 58.15 320.00 56.44 C 321.09 56.25 321.68 55.20 322.40 54.47 C 324.99 51.27 327.62 48.09 330.23 44.90 C 326.23 44.17 322.24 43.37 318.23 42.73 C 320.79 37.22 323.61 31.84 326.32 26.40 C 316.50 23.84 306.70 21.22 296.86 18.73 C 300.53 25.71 304.16 32.71 307.64 39.79 C 304.08 40.76 300.58 41.94 297.07 43.09 C 292.58 32.95 288.20 22.76 283.65 12.64 C 280.75 15.80 278.00 19.09 275.12 22.27 C 274.33 23.32 272.97 24.39 273.56 25.89 C 274.12 32.15 275.42 38.47 275.50 44.68 C 270.10 48.71 264.60 52.59 259.13 56.52 C 260.50 59.99 262.00 63.39 263.65 66.74 C 258.91 66.89 254.18 67.22 249.45 67.58 C 250.88 62.98 252.62 58.49 254.05 53.90 C 254.54 52.52 254.86 50.93 256.16 50.05 C 260.71 46.14 265.53 42.54 270.02 38.55 C 265.29 36.51 260.56 34.48 255.85 32.40 C 253.23 25.02 250.63 17.62 247.95 10.26 C 243.88 16.82 240.16 23.59 236.18 30.20 M 330.02 50.71 C 336.35 54.05 342.58 57.58 348.88 60.97 C 341.69 67.17 334.49 73.35 327.32 79.57 C 330.66 85.00 334.06 90.39 337.44 95.79 C 333.62 103.90 329.57 111.89 325.65 119.94 C 336.79 118.62 347.90 117.14 359.05 115.87 C 360.02 113.30 360.97 110.73 361.93 108.15 C 364.25 112.54 366.23 117.11 368.70 121.42 C 373.40 123.37 378.25 125.01 383.08 126.59 C 394.01 127.91 405.02 128.61 415.98 129.71 C 417.90 129.76 420.23 130.64 421.73 128.95 C 426.17 125.26 430.68 121.64 435.17 118.01 C 425.83 112.87 416.54 107.66 407.17 102.57 C 411.89 89.24 416.38 75.82 421.16 62.51 C 428.44 62.06 435.68 61.13 442.95 60.69 C 438.62 53.35 434.20 46.07 429.86 38.74 C 416.17 38.70 402.48 38.12 388.80 38.05 C 383.79 40.81 379.10 44.19 374.33 47.35 C 380.49 52.30 386.58 57.36 392.77 62.28 C 391.74 76.14 390.28 89.98 389.05 103.83 C 380.88 104.56 372.73 105.44 364.57 106.14 C 359.56 103.95 354.60 101.65 349.57 99.52 C 356.94 94.92 364.39 90.40 371.68 85.67 C 366.35 83.14 360.88 80.90 355.65 78.16 C 362.73 71.98 369.79 65.78 376.74 59.45 C 372.19 57.42 367.74 55.15 363.20 53.08 C 369.11 41.53 374.99 29.95 380.85 18.37 C 379.06 18.18 377.26 17.99 375.48 17.78 C 360.33 28.75 345.08 39.61 330.02 50.71 M 468.16 79.19 C 464.31 68.77 460.48 58.34 456.60 47.93 C 452.75 63.16 448.82 78.37 445.05 93.63 C 449.46 92.60 453.88 91.62 458.30 90.60 C 447.37 105.01 436.00 119.09 425.11 133.53 C 438.10 127.15 451.08 120.76 464.00 114.25 C 464.13 123.58 464.20 132.95 464.84 142.24 C 472.39 137.20 479.90 132.12 487.47 127.11 C 482.30 118.35 476.76 109.82 471.67 101.01 C 479.34 100.91 487.01 100.67 494.66 100.17 C 498.69 93.58 502.12 86.56 505.95 79.81 C 509.90 82.47 513.95 84.99 517.88 87.70 C 512.30 105.22 506.66 122.73 501.06 140.25 C 494.04 140.24 487.03 140.26 480.02 140.24 C 487.57 148.90 494.95 157.71 502.56 166.33 C 515.01 143.85 527.63 121.46 540.17 99.04 C 546.43 98.77 552.69 98.33 558.97 98.23 C 557.29 90.41 555.58 82.59 553.96 74.75 C 537.33 71.06 520.68 67.48 504.05 63.78 C 503.84 68.07 503.50 72.37 503.46 76.67 C 495.89 80.05 488.06 82.85 480.42 86.06 C 487.13 75.72 494.44 65.67 500.95 55.24 C 494.93 48.15 488.81 41.15 482.63 34.20 C 477.80 49.20 472.96 64.19 468.16 79.19 M 211.21 39.84 C 211.88 45.53 213.11 51.12 214.19 56.74 C 216.42 56.35 218.66 55.99 220.91 55.67 C 214.93 52.57 214.04 45.30 211.21 39.84 M 329.08 61.98 C 328.71 63.62 329.32 64.16 330.91 63.61 C 331.28 61.97 330.67 61.42 329.08 61.98 M 373.84 75.56 C 376.74 77.04 379.24 79.14 380.74 82.07 C 381.77 77.56 381.91 72.93 382.18 68.33 C 379.16 70.46 376.56 73.08 373.84 75.56 M 428.17 72.12 C 425.32 80.72 422.17 89.22 419.33 97.82 C 424.08 100.63 428.95 103.23 433.81 105.86 C 435.17 104.04 437.14 102.47 437.84 100.26 C 436.73 97.31 434.86 94.23 435.66 90.96 C 437.26 84.29 438.96 77.64 440.71 71.01 C 436.51 71.12 432.32 71.42 428.17 72.12 M 376.03 95.00 C 377.31 94.92 378.60 94.84 379.90 94.76 C 379.98 93.37 380.07 91.98 380.16 90.59 C 378.76 92.05 377.39 93.52 376.03 95.00 M 489.11 110.49 C 491.48 114.47 493.60 118.64 496.52 122.26 C 498.00 117.49 499.48 112.72 501.12 108.00 C 497.45 110.04 493.24 110.50 489.11 110.49 Z" />
<path fill="#1b0000" opacity="0.32" d=" M 130.08 55.93 C 146.03 49.62 162.05 43.49 178.00 37.19 C 179.64 41.55 181.38 45.88 183.11 50.21 C 168.66 54.42 154.10 58.20 139.63 62.31 C 136.43 60.20 133.24 58.10 130.08 55.93 Z" />
<path fill="#1b0000" opacity="0.32" d=" M 132.08 80.65 C 141.19 78.63 150.27 76.43 159.37 74.37 C 159.07 77.31 158.73 80.25 158.41 83.20 C 152.76 85.83 147.13 88.51 141.53 91.25 C 138.31 87.78 135.29 84.13 132.08 80.65 Z" />
<path fill="#1b0000" opacity="0.32" d=" M 34.99 103.53 C 40.96 94.70 47.11 86.00 53.07 77.15 C 61.88 78.65 70.65 80.45 79.45 82.05 C 64.60 89.14 49.76 96.28 34.99 103.53 Z" />
<path fill="#1b0000" opacity="0.32" d=" M 193.47 92.88 C 202.46 89.86 211.42 86.75 220.37 83.64 C 220.94 85.60 221.52 87.55 222.11 89.51 C 225.43 87.97 228.79 86.50 232.15 85.03 C 232.58 91.04 233.21 97.03 233.62 103.03 C 222.75 106.10 211.49 106.81 200.29 107.72 C 198.04 102.76 195.79 97.81 193.47 92.88 Z" />
</g>
<g id="#ffffffff">
<path fill="#ffffff" opacity="1.00" d=" M 236.18 30.20 C 240.16 23.59 243.88 16.82 247.95 10.26 C 250.63 17.62 253.23 25.02 255.85 32.40 C 260.56 34.48 265.29 36.51 270.02 38.55 C 265.53 42.54 260.71 46.14 256.16 50.05 C 254.86 50.93 254.54 52.52 254.05 53.90 C 252.62 58.49 250.88 62.98 249.45 67.58 C 254.18 67.22 258.91 66.89 263.65 66.74 C 262.00 63.39 260.50 59.99 259.13 56.52 C 264.60 52.59 270.10 48.71 275.50 44.68 C 275.42 38.47 274.12 32.15 273.56 25.89 C 272.97 24.39 274.33 23.32 275.12 22.27 C 278.00 19.09 280.75 15.80 283.65 12.64 C 288.20 22.76 292.58 32.95 297.07 43.09 C 300.58 41.94 304.08 40.76 307.64 39.79 C 304.16 32.71 300.53 25.71 296.86 18.73 C 306.70 21.22 316.50 23.84 326.32 26.40 C 323.61 31.84 320.79 37.22 318.23 42.73 C 322.24 43.37 326.23 44.17 330.23 44.90 C 327.62 48.09 324.99 51.27 322.40 54.47 C 321.68 55.20 321.09 56.25 320.00 56.44 C 312.74 58.15 305.52 59.99 298.26 61.66 C 298.12 66.71 298.67 71.75 298.49 76.80 C 305.02 72.08 311.56 67.37 318.10 62.65 C 321.51 70.02 325.05 77.34 328.41 84.74 C 320.36 86.46 312.26 87.98 304.23 89.77 C 303.48 94.75 302.62 99.72 301.92 104.71 C 309.52 105.37 317.16 105.62 324.75 106.38 C 315.76 113.50 306.81 120.69 297.80 127.78 C 292.85 118.51 287.81 109.29 282.85 100.03 C 275.97 101.96 269.04 103.71 262.17 105.64 C 257.92 107.12 253.56 105.12 249.30 104.77 C 259.85 95.95 270.60 87.39 281.30 78.76 C 279.74 74.72 277.89 70.80 276.19 66.81 C 273.52 66.66 270.85 66.32 268.17 66.33 C 262.65 71.08 257.45 76.23 252.07 81.15 C 250.90 82.03 250.85 83.58 250.45 84.86 C 247.33 97.90 244.11 110.92 240.91 123.94 C 234.06 119.05 227.33 114.00 220.53 109.03 C 213.41 116.21 205.95 123.03 198.65 130.03 C 188.20 119.69 177.82 109.28 167.19 99.14 C 161.62 100.17 156.01 101.02 150.46 102.12 C 147.54 106.77 144.54 111.37 141.45 115.91 C 150.71 116.93 159.97 117.84 169.21 118.98 C 155.64 126.49 142.02 133.92 128.30 141.16 C 128.07 139.46 127.85 137.76 127.63 136.06 C 111.37 142.38 95.02 148.50 78.72 154.75 C 67.41 158.58 57.83 166.27 46.99 170.95 C 42.20 169.01 37.51 166.80 32.80 164.70 C 43.78 157.14 54.69 149.48 65.69 141.94 C 63.40 139.92 61.12 137.89 58.73 135.99 C 51.55 138.85 44.32 141.61 37.15 144.52 C 34.46 141.83 31.75 139.16 29.10 136.43 C 38.40 130.88 47.84 125.58 57.18 120.11 C 55.51 117.70 53.86 115.27 52.19 112.86 C 45.71 115.02 39.28 117.33 32.78 119.43 C 29.70 118.47 26.75 116.56 23.54 116.33 C 18.92 118.94 14.47 121.85 9.85 124.45 C 19.71 101.31 29.59 78.18 39.37 55.01 C 45.98 57.62 52.57 60.28 59.16 62.92 C 60.65 63.55 62.26 63.70 63.85 63.84 C 72.58 64.57 81.29 65.49 90.01 66.21 C 96.40 65.98 102.74 65.05 109.13 64.72 C 106.84 72.87 104.42 80.99 102.04 89.11 C 98.08 88.96 94.13 88.71 90.17 88.52 C 89.63 90.10 89.29 91.79 88.43 93.24 C 83.95 96.27 79.31 99.05 74.76 101.98 C 74.51 104.59 74.46 107.22 74.49 109.85 C 85.18 106.53 95.80 102.98 106.48 99.65 C 106.62 104.00 106.36 108.35 106.21 112.70 C 98.91 116.97 91.58 121.18 84.26 125.39 C 84.33 129.03 84.13 132.67 83.95 136.31 C 94.96 132.10 105.93 127.78 116.97 123.64 C 120.33 126.52 123.75 129.32 127.06 132.25 C 125.06 118.82 123.12 105.39 121.15 91.96 C 120.91 90.55 120.57 89.16 120.14 87.80 C 115.29 72.49 110.61 57.13 105.75 41.82 C 136.18 33.88 166.60 25.93 197.04 18.05 C 199.39 31.03 201.88 43.98 204.10 56.97 C 196.64 60.31 189.27 63.83 181.82 67.20 C 183.91 70.15 186.01 73.10 188.20 75.98 C 194.55 74.54 200.91 73.09 207.30 71.76 C 211.44 74.95 215.69 78.01 219.81 81.23 C 218.30 76.31 217.01 71.32 215.58 66.38 C 221.96 65.57 228.40 65.38 234.80 64.69 C 233.99 60.05 233.33 55.39 232.47 50.76 C 229.56 48.61 224.92 47.99 223.78 44.11 C 222.51 41.13 221.22 38.16 219.92 35.19 C 224.34 34.15 228.69 32.86 233.11 31.81 C 234.17 31.43 235.67 31.44 236.18 30.20 M 130.08 55.93 C 133.24 58.10 136.43 60.20 139.63 62.31 C 154.10 58.20 168.66 54.42 183.11 50.21 C 181.38 45.88 179.64 41.55 178.00 37.19 C 162.05 43.49 146.03 49.62 130.08 55.93 M 132.08 80.65 C 135.29 84.13 138.31 87.78 141.53 91.25 C 147.13 88.51 152.76 85.83 158.41 83.20 C 158.73 80.25 159.07 77.31 159.37 74.37 C 150.27 76.43 141.19 78.63 132.08 80.65 M 34.99 103.53 C 49.76 96.28 64.60 89.14 79.45 82.05 C 70.65 80.45 61.88 78.65 53.07 77.15 C 47.11 86.00 40.96 94.70 34.99 103.53 M 193.47 92.88 C 195.79 97.81 198.04 102.76 200.29 107.72 C 211.49 106.81 222.75 106.10 233.62 103.03 C 233.21 97.03 232.58 91.04 232.15 85.03 C 228.79 86.50 225.43 87.97 222.11 89.51 C 221.52 87.55 220.94 85.60 220.37 83.64 C 211.42 86.75 202.46 89.86 193.47 92.88 Z" />
<path fill="#ffffff" opacity="1.00" d=" M 330.02 50.71 C 345.08 39.61 360.33 28.75 375.48 17.78 C 377.26 17.99 379.06 18.18 380.85 18.37 C 374.99 29.95 369.11 41.53 363.20 53.08 C 367.74 55.15 372.19 57.42 376.74 59.45 C 369.79 65.78 362.73 71.98 355.65 78.16 C 360.88 80.90 366.35 83.14 371.68 85.67 C 364.39 90.40 356.94 94.92 349.57 99.52 C 354.60 101.65 359.56 103.95 364.57 106.14 C 372.73 105.44 380.88 104.56 389.05 103.83 C 390.28 89.98 391.74 76.14 392.77 62.28 C 386.58 57.36 380.49 52.30 374.33 47.35 C 379.10 44.19 383.79 40.81 388.80 38.05 C 402.48 38.12 416.17 38.70 429.86 38.74 C 434.20 46.07 438.62 53.35 442.95 60.69 C 435.68 61.13 428.44 62.06 421.16 62.51 C 416.38 75.82 411.89 89.24 407.17 102.57 C 416.54 107.66 425.83 112.87 435.17 118.01 C 430.68 121.64 426.17 125.26 421.73 128.95 C 420.23 130.64 417.90 129.76 415.98 129.71 C 405.02 128.61 394.01 127.91 383.08 126.59 C 378.25 125.01 373.40 123.37 368.70 121.42 C 366.23 117.11 364.25 112.54 361.93 108.15 C 360.97 110.73 360.02 113.30 359.05 115.87 C 347.90 117.14 336.79 118.62 325.65 119.94 C 329.57 111.89 333.62 103.90 337.44 95.79 C 334.06 90.39 330.66 85.00 327.32 79.57 C 334.49 73.35 341.69 67.17 348.88 60.97 C 342.58 57.58 336.35 54.05 330.02 50.71 Z" />
<path fill="#ffffff" opacity="1.00" d=" M 468.16 79.19 C 472.96 64.19 477.80 49.20 482.63 34.20 C 488.81 41.15 494.93 48.15 500.95 55.24 C 494.44 65.67 487.13 75.72 480.42 86.06 C 488.06 82.85 495.89 80.05 503.46 76.67 C 503.50 72.37 503.84 68.07 504.05 63.78 C 520.68 67.48 537.33 71.06 553.96 74.75 C 555.58 82.59 557.29 90.41 558.97 98.23 C 552.69 98.33 546.43 98.77 540.17 99.04 C 527.63 121.46 515.01 143.85 502.56 166.33 C 494.95 157.71 487.57 148.90 480.02 140.24 C 487.03 140.26 494.04 140.24 501.06 140.25 C 506.66 122.73 512.30 105.22 517.88 87.70 C 513.95 84.99 509.90 82.47 505.95 79.81 C 502.12 86.56 498.69 93.58 494.66 100.17 C 487.01 100.67 479.34 100.91 471.67 101.01 C 476.76 109.82 482.30 118.35 487.47 127.11 C 479.90 132.12 472.39 137.20 464.84 142.24 C 464.20 132.95 464.13 123.58 464.00 114.25 C 451.08 120.76 438.10 127.15 425.11 133.53 C 436.00 119.09 447.37 105.01 458.30 90.60 C 453.88 91.62 449.46 92.60 445.05 93.63 C 448.82 78.37 452.75 63.16 456.60 47.93 C 460.48 58.34 464.31 68.77 468.16 79.19 Z" />
</g>
</svg>
